Genre:Action | Horror | Sci-Fi | Thriller
Language:English
IMDb:http://www.imdb.com/title/tt0464154/
Source Video:CAMRip.PROPER
Source Audio:Imagine

General
Complete name :Piranha 3D 2010 TS XVID Feel-Free
Format : AVI
Format/Info : Audio Video Interleave
File size : 828 MiB
Duration : 1h 22mn
Overall bit rate : 1 405 Kbps
Writing library : VirtualDub build 32817/release
Video #0
Muxing mode : Packed bitstream
Codec ID : XVID
Codec ID/Hint : XviD
Duration : 1h 22mn
Bit rate : 1 268 Kbps
Width : 688 pixels
Height : 288 pixels
Display aspect ratio : 2.35:1
Frame rate : 23.976 fps
Resolution : 24 bits
Colorimetry : 4:2:0
Scan type : Progressive
Bits/(Pixel*Frame) : 0.267
Stream size : 747 MiB (90%)
Writing library : XviD 1.2.1 (UTC 2008-12-04)
Audio #1
ID : 1
Format : MPEG Audio
Format version : Version 1
Format profile : Layer 3
Codec ID : 55
Codec ID/Hint : MP3
Duration : 1h 22mn
Bit rate mode : Constant
Bit rate : 128 Kbps
Channel(s) : 2 channels
Sampling rate : 44.1 KHz
Resolution : 16 bits
Stream size : 75.4 MiB (9%)
Alignment : Split accross interleaves
Interleave, duration : 42 ms (1.00 video frame)
Interleave, preload duration : 500 ms

Plot
After a sudden underwater tremor sets free scores of the prehistoric man-eating fish, an unlikely group of strangers must band together to stop themselves from becoming fish food for the area's new razor-toothed residents






================================== 
http://thepiratebay.org/user/hiest
==================================





Screenshots:
 
http://www.starshare.ro/bitbucket/4.jpg
 
http://www.starshare.ro/bitbucket/2.jpg
 
http://www.starshare.ro/bitbucket/3.jpg
 
http://www.starshare.ro/bitbucket/10.jpg
 
http://www.starshare.ro/bitbucket/6.jpg
 
http://www.starshare.ro/bitbucket/5.jpg
 
http://www.starshare.ro/bitbucket/7.jpg